<?xml version="1.0" encoding="UTF-8"?>
<svg width="128" height="128" version="1.1" viewBox="0 0 128 128" xmlns="http://www.w3.org/2000/svg" xmlns:xlink="http://www.w3.org/1999/xlink">
 <defs>
  <linearGradient id="a" x1="69.568" x2="69.568" y1="99.609" y2="30.375" gradientUnits="userSpaceOnUse">
   <stop offset="0"/>
   <stop stop-color="#1e1e1e" offset=".42671"/>
   <stop stop-color="#3c3c3c" offset="1"/>
  </linearGradient>
 </defs>
 <g fill-rule="evenodd">
  <g>
   <path d="m18.034 17.898h92.047v92.047h-92.047z" fill="#35dc8c" style="paint-order:normal"/>
   <path d="m43.277 57.148a28.887 50.756 0 0 0 -25.244 26.113v26.65h54.074a28.887 50.756 0 0 0 0.05664 -2.0078 28.887 50.756 0 0 0 -28.887 -50.756z" fill="#99e96b" style="paint-order:normal"/>
   <path d="m62.557 17.898a40.714 36.495 0 0 0 -16.887 29.537 40.714 36.495 0 0 0 40.715 36.494 40.714 36.495 0 0 0 23.697 -6.873v-59.158z" fill="#c8f160" style="paint-order:normal"/>
   <path d="m91.998 17.898a23.864 39.051 0 0 0 -0.14258 4.1562 23.864 39.051 0 0 0 18.227 37.896v-42.053z" fill="#0aceeb" style="paint-order:normal"/>
   <path d="m91.881 23.188a23.864 39.051 0 0 0 12.088 32.824 27.116 20.847 0 0 0 6.1113 -13.16 27.116 20.847 0 0 0 -18.199 -19.664z" fill="#12cece" style="paint-order:normal"/>
   <path d="m110.08 65.566c-38.688 0.02517-70.942 18.44-75.13 42.521l6.0003 1.8251h69.132v-44.346h-2e-3z" fill="#fcf84c" style="paint-order:normal"/>
   <path d="m110.08 47.869a75.664 47.76 0 0 0 -40.514 42.264 75.664 47.76 0 0 0 6.8965 19.779h33.617z" fill="#fcf84c" style="paint-order:normal"/>
  </g>
  <g>
   <rect x="28.048" y="27.912" width="72.018" height="72.018" fill="url(#a)" style="paint-order:normal"/>
   <g fill="#fff">
    <rect x="33.812" y="85.528" width="27.73" height="4.9481" style="paint-order:normal"/>
    <path d="m33.812 35.842v34.225h7.8828v-10.361h7.7852v-0.04492a12.719 11.932 0 0 0 11.676 -11.887 12.719 11.932 0 0 0 -11.676 -11.883v-0.04883h-7.7852zm7.8828 6.957h6.7422v0.05273a5.2488 4.9224 0 0 1 5.25 4.9219 5.2488 4.9224 0 0 1 -5.25 4.9219h-6.7422z" style="paint-order:normal"/>
    <path d="m81.193 35.857a18.188 17.112 0 0 0 -7.1387 1.0586 18.188 17.112 0 0 0 -11.84 15.982 18.188 17.112 0 0 0 11.732 16.053 18.188 17.112 0 0 0 7.5312 1.0762 15.507 17.112 0 0 0 12.58 -5.7598l-5.1445-5.0039a10.455 10.102 0 0 1 -8.1523 3.793 10.455 10.102 0 0 1 -10.455 -10.104 10.455 10.102 0 0 1 10.455 -10.102 10.455 10.102 0 0 1 8.1973 3.8281l5.1641-4.959a15.507 17.112 0 0 0 -12.67 -5.8398 18.188 17.112 0 0 0 -0.25977 -0.02344z" image-rendering="auto" style="paint-order:normal"/>
   </g>
  </g>
  <path d="m18.033 17.898v92.047h92.047v-92.047zm2.041 2.041h87.965v87.965h-87.965z" opacity=".176" style="paint-order:normal"/>
 </g>
</svg>
